<svg id="Layer_1" data-name="Layer 1" xmlns="http://www.w3.org/2000/svg" viewBox="0 0 1883.37 149.37"><defs><style>.cls-1{opacity:0.46;}.cls-2,.cls-3,.cls-4{fill:none;stroke:#d76231;stroke-miterlimit:10;}.cls-2,.cls-3{stroke-width:2px;}.cls-3{stroke-dasharray:5.99 5.99;}.cls-4{stroke-width:3px;}.cls-5{fill:#d76231;}</style></defs><title>line 3</title><g class="cls-1"><path class="cls-2" d="M49.5,112.73s.63.84,1.89,2.33" transform="translate(-19 -42.59)"/><path class="cls-3" d="M55.36,119.53c25.08,27,129.48,118.86,290.14-14.4,99-82.14,159.05-82,334,0,171,80.11,251.48,150.68,562-14.9,184-98.12,318,22.5,364,37.81,18.66,6.2,180.5,69,282.88,9.41" transform="translate(-19 -42.59)"/><path class="cls-2" d="M1891,135.92c.86-.52,1.71-1,2.55-1.58" transform="translate(-19 -42.59)"/></g><rect class="cls-4" x="1.5" y="40.91" width="29" height="29"/><path class="cls-5" d="M1869.14,126.11l32.62-1.45a.58.58,0,0,1,.61.67l-4.25,28.52a.58.58,0,0,1-1.13.1l-6.15-18.11a.59.59,0,0,0-.35-.36L1869,127.24A.58.58,0,0,1,1869.14,126.11Z" transform="translate(-19 -42.59)"/></svg>