<?xml version="1.0" encoding="utf-8"?>
<!-- Generator: Adobe Illustrator 24.0.1, SVG Export Plug-In . SVG Version: 6.00 Build 0)  -->
<svg version="1.1" id="Layer_1" xmlns="http://www.w3.org/2000/svg" xmlns:xlink="http://www.w3.org/1999/xlink" x="0px" y="0px"
	 viewBox="0 0 918 751" style="enable-background:new 0 0 918 751;" xml:space="preserve">
<style type="text/css">
	.st0{display:none;}
	.st1{display:inline;fill:#E8591A;}
	.st2{display:inline;fill:#1A2E4C;}
	.st3{display:none;fill:#BFBEBE;}
	.st4{clip-path:url(#SVGID_2_);fill:#1A2E4C;}
	.st5{clip-path:url(#SVGID_4_);fill:#1A2E4C;}
	.st6{clip-path:url(#SVGID_6_);fill:#1A2E4C;}
	.st7{fill:#E8591A;}
</style>
<g>
	<g>
		<g class="st0">
			<path class="st1" d="M48.64,852.05c-3.89,0-7.3-0.55-10.23-1.65c-2.93-1.1-5.35-2.57-7.26-4.4c-1.91-1.83-3.36-3.88-4.34-6.16
				c-0.99-2.27-1.48-4.58-1.48-6.93c0-1.54,0.37-2.6,1.1-3.19s1.8-0.88,3.19-0.88c1.25,0,2.36,0.26,3.35,0.77
				c0.99,0.51,1.48,1.47,1.48,2.86c0,2.35,0.66,4.34,1.98,5.99c1.32,1.65,3.06,2.93,5.22,3.85c2.16,0.92,4.56,1.37,7.2,1.37
				c4.62,0,8.21-1.26,10.78-3.79c2.57-2.53,3.85-6.47,3.85-11.82v-15.4c-1.83,2.35-4.16,4.07-6.98,5.17
				c-2.82,1.1-5.85,1.65-9.07,1.65c-4.11,0-7.83-0.68-11.16-2.03c-3.34-1.35-5.99-3.65-7.97-6.87c-1.98-3.22-2.97-7.66-2.97-13.3
				v-2.31c0-5.79,1.04-10.45,3.13-13.97c2.09-3.52,4.91-6.06,8.47-7.64c3.55-1.58,7.57-2.36,12.04-2.36s8.5,0.79,12.1,2.36
				c3.59,1.58,6.43,4.12,8.52,7.64c2.09,3.52,3.13,8.18,3.13,13.97v33.1c0,5.79-1.06,10.45-3.19,13.97c-2.13,3.52-5,6.07-8.63,7.64
				C57.27,851.27,53.18,852.05,48.64,852.05z M48.96,811.8c4.47,0,8.01-1.08,10.61-3.24c2.6-2.16,3.9-5.74,3.9-10.72v-3.3
				c0-5.35-1.28-9.29-3.85-11.82c-2.57-2.53-6.12-3.79-10.67-3.79c-4.54,0-8.08,1.27-10.61,3.79c-2.53,2.53-3.79,6.47-3.79,11.82
				v2.31c0,5.43,1.27,9.27,3.79,11.55C40.88,810.67,44.42,811.8,48.96,811.8z"/>
			<path class="st1" d="M134.63,851.39c-1.1,0-2.15-0.28-3.13-0.83c-0.99-0.55-1.48-1.37-1.48-2.47v-27.82
				c0-0.44-0.08-0.81-0.22-1.1l-22.76-42.45c-0.15-0.37-0.26-0.71-0.33-1.04c-0.08-0.33-0.11-0.6-0.11-0.83
				c0-0.73,0.29-1.39,0.88-1.98c0.59-0.59,1.3-1.04,2.14-1.37c0.84-0.33,1.67-0.5,2.48-0.5c0.8,0,1.45,0.2,1.92,0.6
				c0.48,0.4,0.93,1.01,1.37,1.81l19.25,37.72l19.35-37.72c0.44-0.81,0.92-1.41,1.43-1.81c0.51-0.4,1.14-0.6,1.87-0.6
				c0.81,0,1.63,0.17,2.48,0.5c0.84,0.33,1.56,0.79,2.14,1.37c0.59,0.59,0.88,1.25,0.88,1.98c0,0.22-0.04,0.5-0.11,0.83
				c-0.07,0.33-0.18,0.68-0.33,1.04l-22.76,42.45c-0.22,0.29-0.33,0.66-0.33,1.1v27.82c0,1.1-0.48,1.92-1.43,2.47
				C136.86,851.12,135.8,851.39,134.63,851.39z"/>
			<path class="st1" d="M184.55,852.27c-4.11,0-7.61-1.19-10.5-3.57c-2.9-2.38-4.34-6.06-4.34-11.05c0-4.03,1.1-7.16,3.3-9.4
				c2.2-2.24,5.22-3.78,9.07-4.62c3.85-0.84,8.3-1.26,13.36-1.26h5.28v-2.31c0-2.2-0.4-4.34-1.21-6.43
				c-0.81-2.09-2.07-3.81-3.79-5.17c-1.72-1.35-4.09-2.03-7.09-2.03c-2.57,0-4.6,0.26-6.1,0.77c-1.5,0.51-2.69,1.05-3.58,1.59
				c-0.88,0.55-1.65,0.83-2.31,0.83c-1.1,0-1.94-0.53-2.53-1.59c-0.59-1.06-0.88-2.07-0.88-3.02c0-1.17,0.81-2.24,2.42-3.19
				c1.61-0.95,3.63-1.72,6.05-2.31c2.42-0.59,4.8-0.88,7.15-0.88c5.13,0,9.24,1.03,12.32,3.08c3.08,2.05,5.3,4.69,6.65,7.92
				c1.36,3.23,2.03,6.67,2.03,10.34v28.15c0,0.88-0.42,1.65-1.26,2.31c-0.84,0.66-1.92,0.99-3.24,0.99c-1.17,0-2.16-0.33-2.97-0.99
				c-0.81-0.66-1.21-1.43-1.21-2.31v-4.4c-1.91,2.2-4.22,4.18-6.93,5.94C191.51,851.39,188.29,852.27,184.55,852.27z M187.41,844.9
				c2.13,0,4.2-0.59,6.21-1.76c2.01-1.17,3.7-2.64,5.06-4.4c1.36-1.76,2.03-3.45,2.03-5.06v-5.72h-3.85c-3.08,0-5.99,0.18-8.74,0.55
				c-2.75,0.37-4.97,1.15-6.65,2.36c-1.69,1.21-2.53,3.13-2.53,5.77c0,2.86,0.81,4.95,2.42,6.27
				C182.97,844.24,184.99,844.9,187.41,844.9z"/>
			<path class="st1" d="M228.75,851.39c-1.25,0-2.29-0.35-3.13-1.04c-0.84-0.7-1.26-1.45-1.26-2.26v-45.64
				c0-0.95,0.42-1.72,1.26-2.31c0.84-0.59,1.89-0.88,3.13-0.88s2.27,0.29,3.08,0.88s1.21,1.36,1.21,2.31v5.17
				c0.8-1.54,1.9-2.99,3.3-4.34c1.39-1.36,3.02-2.47,4.89-3.35c1.87-0.88,3.94-1.32,6.21-1.32h3.74c0.95,0,1.77,0.41,2.47,1.21
				c0.7,0.81,1.05,1.8,1.05,2.97c0,1.1-0.35,2.05-1.05,2.86c-0.7,0.81-1.52,1.21-2.47,1.21h-3.74c-2.35,0-4.58,0.66-6.71,1.98
				c-2.13,1.32-3.87,3.17-5.22,5.55c-1.36,2.38-2.03,5.26-2.03,8.63v25.07c0,0.81-0.46,1.56-1.38,2.26
				C231.19,851.04,230.07,851.39,228.75,851.39z"/>
			<path class="st1" d="M279.23,852.27c-3.45,0-6.65-1.01-9.62-3.02c-2.97-2.02-5.35-4.66-7.15-7.92c-1.8-3.26-2.69-6.72-2.69-10.39
				v-11.22c0-3.88,0.9-7.4,2.69-10.56c1.8-3.15,4.18-5.7,7.15-7.64c2.97-1.94,6.25-2.91,9.84-2.91c3.52,0,6.51,0.86,8.96,2.58
				c2.45,1.72,4.27,3.65,5.44,5.77v-35.96c0-0.95,0.46-1.72,1.38-2.31c0.92-0.59,2.03-0.88,3.35-0.88c1.32,0,2.38,0.29,3.19,0.88
				c0.81,0.59,1.21,1.36,1.21,2.31v77.09c0,0.81-0.4,1.56-1.21,2.26c-0.81,0.7-1.87,1.04-3.19,1.04c-1.17,0-2.18-0.35-3.02-1.04
				c-0.84-0.7-1.26-1.45-1.26-2.26v-4.4c-1.1,2.27-3.04,4.27-5.83,5.99C285.68,851.41,282.6,852.27,279.23,852.27z M281.43,844.02
				c2.35,0,4.45-0.64,6.32-1.92c1.87-1.28,3.36-2.73,4.45-4.34c1.1-1.61,1.65-2.89,1.65-3.85v-14.18c0-2.71-0.6-5-1.81-6.87
				c-1.21-1.87-2.77-3.33-4.67-4.4c-1.91-1.06-3.85-1.59-5.83-1.59c-2.35,0-4.47,0.62-6.38,1.87c-1.91,1.25-3.43,2.86-4.56,4.84
				c-1.14,1.98-1.71,4.03-1.71,6.16v11.22c0,2.13,0.57,4.22,1.71,6.27c1.13,2.05,2.66,3.7,4.56,4.95
				C277.07,843.4,279.15,844.02,281.43,844.02z"/>
			<path class="st1" d="M333.11,852.27c-3.52,0-6.64-0.46-9.35-1.38c-2.71-0.92-4.84-2-6.38-3.24c-1.54-1.25-2.31-2.49-2.31-3.74
				c0-0.59,0.15-1.19,0.44-1.81c0.29-0.62,0.68-1.17,1.15-1.65c0.48-0.47,1.01-0.71,1.6-0.71c0.88,0,1.83,0.42,2.86,1.26
				c1.03,0.84,2.42,1.71,4.18,2.58c1.76,0.88,4.29,1.32,7.59,1.32c3.88,0,6.6-0.71,8.14-2.14c1.54-1.43,2.31-3.02,2.31-4.78
				c0-2.27-0.66-4.01-1.98-5.22c-1.32-1.21-3.01-2.16-5.06-2.86c-2.05-0.7-4.22-1.38-6.49-2.03c-2.27-0.66-4.44-1.48-6.49-2.47
				c-2.05-0.99-3.72-2.38-5-4.18c-1.28-1.8-1.92-4.2-1.92-7.2c0-2.42,0.59-4.8,1.76-7.15c1.17-2.35,3.08-4.31,5.72-5.88
				c2.64-1.58,6.16-2.36,10.56-2.36c2.57,0,5.04,0.28,7.42,0.83c2.38,0.55,4.32,1.28,5.83,2.2c1.5,0.92,2.26,1.89,2.26,2.91
				c0,0.44-0.15,1.03-0.44,1.76c-0.29,0.73-0.7,1.39-1.21,1.98c-0.51,0.59-1.18,0.88-1.98,0.88c-0.59,0-1.41-0.28-2.47-0.83
				c-1.06-0.55-2.35-1.08-3.85-1.59c-1.5-0.51-3.32-0.77-5.44-0.77c-2.42,0-4.36,0.42-5.83,1.26c-1.47,0.84-2.53,1.83-3.19,2.97
				c-0.66,1.14-0.99,2.29-0.99,3.46c0,1.83,0.64,3.26,1.93,4.29c1.28,1.03,2.97,1.85,5.06,2.47c2.09,0.62,4.27,1.25,6.55,1.87
				c2.27,0.62,4.43,1.5,6.49,2.64c2.05,1.14,3.74,2.7,5.06,4.67c1.32,1.98,1.98,4.62,1.98,7.92c0,4.47-1.61,8.05-4.84,10.72
				S338.98,852.27,333.11,852.27z"/>
		</g>
		<g class="st0">
			<path class="st2" d="M392.81,851.39c-1.17,0-2.24-0.28-3.19-0.83c-0.95-0.55-1.43-1.37-1.43-2.47v-68.51h-17.81
				c-0.95,0-1.72-0.44-2.31-1.32c-0.59-0.88-0.88-1.9-0.88-3.08c0-1.02,0.26-1.98,0.77-2.86c0.51-0.88,1.32-1.32,2.42-1.32h44.87
				c1.1,0,1.9,0.44,2.42,1.32c0.51,0.88,0.77,1.84,0.77,2.86c0,1.1-0.26,2.11-0.77,3.02c-0.51,0.92-1.32,1.38-2.42,1.38h-17.82
				v68.51c0,1.1-0.48,1.92-1.43,2.47C395.05,851.12,393.98,851.39,392.81,851.39z"/>
			<path class="st2" d="M452.08,852.27c-4.76,0-8.98-0.9-12.65-2.69c-3.67-1.8-6.56-4.29-8.69-7.48c-2.13-3.19-3.19-6.91-3.19-11.16
				v-11.55c0-3.74,1.01-7.18,3.03-10.34c2.02-3.15,4.67-5.68,7.97-7.59c3.3-1.9,6.93-2.86,10.89-2.86c3.81,0,7.31,0.88,10.5,2.64
				c3.19,1.76,5.75,4.14,7.7,7.15c1.94,3.01,2.91,6.49,2.91,10.45c0,2.93-0.48,5.04-1.43,6.32c-0.95,1.28-2.16,2.07-3.63,2.36
				c-1.47,0.29-3.01,0.44-4.62,0.44h-24.19v3.3c0,4.11,1.47,7.35,4.4,9.73c2.93,2.38,6.71,3.57,11.33,3.57
				c2.71,0,4.87-0.37,6.49-1.1c1.61-0.73,2.93-1.45,3.96-2.15c1.03-0.7,1.94-1.04,2.75-1.04c0.81,0,1.48,0.24,2.03,0.71
				c0.55,0.48,0.97,1.05,1.26,1.71c0.29,0.66,0.44,1.25,0.44,1.76c0,0.95-0.7,2.03-2.09,3.24c-1.39,1.21-3.39,2.27-5.99,3.19
				C458.66,851.81,455.6,852.27,452.08,852.27z M436.69,821.81h20.34c1.98,0,3.28-0.24,3.91-0.71c0.62-0.48,0.93-1.41,0.93-2.81
				c0-2.2-0.54-4.23-1.6-6.1c-1.06-1.87-2.55-3.39-4.45-4.56c-1.91-1.17-4.07-1.76-6.49-1.76c-2.27,0-4.36,0.53-6.27,1.59
				c-1.91,1.06-3.45,2.51-4.62,4.34c-1.17,1.83-1.76,3.85-1.76,6.05V821.81z"/>
			<path class="st2" d="M505.31,852.27c-5.06,0-9.22-0.95-12.48-2.86c-3.26-1.9-5.68-4.45-7.26-7.64c-1.58-3.19-2.37-6.8-2.37-10.83
				v-11c0-3.96,0.79-7.55,2.37-10.78c1.58-3.23,3.99-5.79,7.26-7.7c3.26-1.9,7.39-2.86,12.37-2.86c3.23,0,6.05,0.41,8.47,1.21
				c2.42,0.81,4.29,1.8,5.61,2.97c1.32,1.17,1.98,2.31,1.98,3.41c0,0.59-0.17,1.23-0.5,1.92c-0.33,0.7-0.77,1.3-1.32,1.81
				c-0.55,0.51-1.19,0.77-1.92,0.77c-0.73,0-1.52-0.33-2.37-0.99c-0.84-0.66-1.98-1.3-3.41-1.93c-1.43-0.62-3.43-0.93-5.99-0.93
				c-4.47,0-7.83,1.17-10.06,3.52c-2.24,2.35-3.35,5.54-3.35,9.57v11c0,4.03,1.12,7.22,3.35,9.57c2.24,2.35,5.63,3.52,10.17,3.52
				c2.64,0,4.69-0.35,6.16-1.04c1.47-0.7,2.62-1.36,3.46-1.98c0.84-0.62,1.67-0.93,2.47-0.93s1.5,0.24,2.09,0.71
				c0.58,0.48,1.04,1.05,1.38,1.71c0.33,0.66,0.49,1.32,0.49,1.98c0,1.1-0.7,2.25-2.09,3.46c-1.39,1.21-3.34,2.24-5.83,3.08
				C511.5,851.85,508.61,852.27,505.31,852.27z"/>
			<path class="st2" d="M539.95,851.39c-1.32,0-2.4-0.35-3.24-1.04c-0.84-0.7-1.26-1.45-1.26-2.26v-77.09
				c0-0.95,0.42-1.72,1.26-2.31c0.84-0.59,1.93-0.88,3.24-0.88c1.25,0,2.33,0.29,3.24,0.88c0.92,0.59,1.38,1.36,1.38,2.31v35.96
				c1.17-2.13,2.95-4.05,5.33-5.77c2.38-1.72,5.37-2.58,8.96-2.58c3.52,0,6.74,0.97,9.68,2.91c2.93,1.94,5.28,4.49,7.04,7.64
				c1.76,3.15,2.64,6.67,2.64,10.56v28.37c0,1.1-0.48,1.92-1.43,2.47c-0.95,0.55-2.02,0.83-3.19,0.83c-1.1,0-2.13-0.28-3.08-0.83
				c-0.95-0.55-1.43-1.37-1.43-2.47v-28.37c0-2.13-0.59-4.18-1.76-6.16c-1.17-1.98-2.69-3.59-4.56-4.84
				c-1.87-1.25-3.94-1.87-6.21-1.87c-1.98,0-3.89,0.53-5.72,1.59c-1.83,1.06-3.33,2.53-4.51,4.4c-1.18,1.87-1.76,4.16-1.76,6.87
				v28.37c0,0.81-0.46,1.56-1.38,2.26C542.27,851.04,541.19,851.39,539.95,851.39z"/>
			<path class="st2" d="M599.55,851.39c-1.32,0-2.4-0.35-3.24-1.04c-0.84-0.7-1.27-1.45-1.27-2.26v-45.64
				c0-0.95,0.42-1.72,1.27-2.31c0.84-0.59,1.92-0.88,3.24-0.88c1.17,0,2.16,0.29,2.97,0.88c0.81,0.59,1.21,1.36,1.21,2.31v4.51
				c1.17-2.13,3-4.05,5.5-5.77c2.49-1.72,5.57-2.58,9.24-2.58c3.52,0,6.74,0.97,9.68,2.91c2.93,1.94,5.28,4.49,7.04,7.64
				s2.64,6.67,2.64,10.56v28.37c0,1.1-0.48,1.92-1.43,2.47c-0.95,0.55-2.02,0.83-3.19,0.83c-1.1,0-2.13-0.28-3.08-0.83
				c-0.95-0.55-1.43-1.37-1.43-2.47v-28.37c0-2.13-0.57-4.18-1.71-6.16c-1.14-1.98-2.66-3.59-4.56-4.84c-1.91-1.25-4-1.87-6.27-1.87
				c-1.98,0-3.89,0.53-5.72,1.59c-1.84,1.06-3.34,2.53-4.51,4.4c-1.17,1.87-1.76,4.16-1.76,6.87v28.37c0,0.81-0.46,1.56-1.38,2.26
				C601.87,851.04,600.79,851.39,599.55,851.39z"/>
			<path class="st2" d="M674.32,852.27c-3.89,0-7.48-0.99-10.78-2.97c-3.3-1.98-5.94-4.6-7.92-7.86c-1.98-3.26-2.97-6.76-2.97-10.5
				v-11.22c0-3.74,0.97-7.2,2.92-10.39c1.94-3.19,4.56-5.77,7.86-7.75c3.3-1.98,6.93-2.97,10.89-2.97c3.88,0,7.48,0.96,10.78,2.86
				c3.3,1.91,5.96,4.45,7.97,7.64c2.01,3.19,3.02,6.73,3.02,10.61v11.22c0,3.67-1.01,7.13-3.02,10.39c-2.02,3.26-4.67,5.9-7.97,7.92
				C681.8,851.27,678.21,852.27,674.32,852.27z M674.32,844.02c2.35,0,4.47-0.62,6.38-1.87c1.91-1.25,3.43-2.88,4.56-4.89
				c1.14-2.02,1.71-4.12,1.71-6.32v-11.22c0-2.2-0.57-4.27-1.71-6.21c-1.14-1.94-2.66-3.54-4.56-4.78
				c-1.91-1.25-4.03-1.87-6.38-1.87s-4.45,0.62-6.32,1.87c-1.87,1.25-3.37,2.84-4.51,4.78c-1.14,1.94-1.71,4.01-1.71,6.21v11.22
				c0,2.2,0.55,4.31,1.65,6.32c1.1,2.02,2.62,3.65,4.56,4.89C669.94,843.4,672.05,844.02,674.32,844.02z"/>
			<path class="st2" d="M716.99,851.39c-1.32,0-2.4-0.35-3.24-1.04c-0.84-0.7-1.27-1.45-1.27-2.26v-77.09
				c0-0.95,0.42-1.72,1.27-2.31c0.84-0.59,1.92-0.88,3.24-0.88c1.25,0,2.32,0.29,3.24,0.88c0.92,0.59,1.37,1.36,1.37,2.31v77.09
				c0,0.81-0.46,1.56-1.37,2.26C719.31,851.04,718.23,851.39,716.99,851.39z"/>
			<path class="st2" d="M759.65,852.27c-3.89,0-7.48-0.99-10.78-2.97c-3.3-1.98-5.94-4.6-7.92-7.86c-1.98-3.26-2.97-6.76-2.97-10.5
				v-11.22c0-3.74,0.97-7.2,2.91-10.39c1.94-3.19,4.56-5.77,7.86-7.75c3.3-1.98,6.93-2.97,10.89-2.97c3.88,0,7.48,0.96,10.78,2.86
				c3.3,1.91,5.96,4.45,7.97,7.64c2.02,3.19,3.02,6.73,3.02,10.61v11.22c0,3.67-1.01,7.13-3.02,10.39c-2.02,3.26-4.67,5.9-7.97,7.92
				C767.13,851.27,763.54,852.27,759.65,852.27z M759.65,844.02c2.35,0,4.47-0.62,6.38-1.87c1.9-1.25,3.43-2.88,4.56-4.89
				c1.13-2.02,1.7-4.12,1.7-6.32v-11.22c0-2.2-0.57-4.27-1.7-6.21c-1.14-1.94-2.66-3.54-4.56-4.78c-1.91-1.25-4.03-1.87-6.38-1.87
				c-2.35,0-4.45,0.62-6.32,1.87c-1.87,1.25-3.37,2.84-4.51,4.78c-1.14,1.94-1.71,4.01-1.71,6.21v11.22c0,2.2,0.55,4.31,1.65,6.32
				c1.1,2.02,2.62,3.65,4.56,4.89C755.27,843.4,757.38,844.02,759.65,844.02z"/>
			<path class="st2" d="M815.85,876.57c-4.33,0-8.21-0.6-11.66-1.81s-6.18-2.93-8.19-5.17c-2.02-2.24-3.02-4.86-3.02-7.86
				c0-3.08,0.9-5.59,2.69-7.53c1.8-1.94,3.87-3.43,6.21-4.45c-1.61-0.59-2.95-1.45-4.01-2.58c-1.06-1.14-1.59-2.73-1.59-4.78
				c0-2.05,0.51-3.69,1.54-4.89c1.03-1.21,2.35-2.29,3.96-3.24c-1.98-1.61-3.52-3.61-4.62-5.99c-1.1-2.38-1.65-5-1.65-7.86v-3.63
				c0-3.59,0.8-6.74,2.42-9.46c1.61-2.71,3.9-4.84,6.87-6.38c2.97-1.54,6.43-2.31,10.39-2.31c2.57,0,4.93,0.39,7.09,1.15
				c2.16,0.77,4.05,1.81,5.66,3.14c1.17-2.42,2.4-4.21,3.68-5.39c1.28-1.17,2.55-1.76,3.79-1.76c1.32,0,2.31,0.37,2.97,1.1
				c0.66,0.73,0.99,1.5,0.99,2.31c0,0.59-0.18,1.1-0.55,1.54c-0.37,0.44-0.81,0.77-1.32,0.99c-0.81,0.22-1.74,0.66-2.8,1.32
				c-1.06,0.66-2.07,1.76-3.03,3.3c1.1,1.39,1.93,2.99,2.48,4.78c0.55,1.8,0.83,3.68,0.83,5.66v3.63c0,3.45-0.84,6.56-2.53,9.35
				c-1.69,2.79-4.03,4.97-7.04,6.54c-3.01,1.58-6.45,2.36-10.34,2.36c-3.01,0-5.68-0.55-8.03-1.65c-0.73,0.44-1.39,0.93-1.98,1.48
				c-0.59,0.55-0.88,1.3-0.88,2.25c0,1.54,0.83,2.64,2.48,3.3c1.65,0.66,3.76,1.14,6.32,1.43c2.57,0.29,5.28,0.62,8.14,0.99
				c2.86,0.37,5.57,1.01,8.14,1.93c2.57,0.92,4.67,2.33,6.32,4.23c1.65,1.9,2.48,4.54,2.48,7.92c0,3.59-0.99,6.58-2.97,8.96
				c-1.98,2.38-4.64,4.16-7.97,5.33C823.78,875.99,820.03,876.57,815.85,876.57z M815.62,870.2c4.18,0,7.48-0.86,9.9-2.58
				c2.42-1.72,3.63-4.01,3.63-6.87c0-2.05-0.62-3.65-1.87-4.78c-1.25-1.14-2.86-1.98-4.84-2.53c-1.98-0.55-4.05-0.92-6.21-1.1
				c-2.16-0.18-4.12-0.38-5.88-0.6c-2.35,0.73-4.38,1.83-6.1,3.3c-1.72,1.47-2.58,3.37-2.58,5.72c0,2.86,1.28,5.15,3.85,6.87
				C808.07,869.33,811.45,870.2,815.62,870.2z M815.3,832.37c3.37,0,6.01-1.13,7.92-3.41c1.91-2.27,2.86-5.13,2.86-8.58v-3.63
				c0-3.37-0.95-6.19-2.86-8.47s-4.58-3.41-8.03-3.41c-3.45,0-6.1,1.14-7.97,3.41c-1.87,2.27-2.81,5.1-2.81,8.47v3.52
				c0,3.45,0.95,6.32,2.86,8.63C809.17,831.21,811.85,832.37,815.3,832.37z"/>
			<path class="st2" d="M850.6,876.57c-1.18,0-2.16-0.28-2.97-0.82c-0.81-0.55-1.21-1.63-1.21-3.24c0-1.03,0.2-1.94,0.6-2.75
				c0.4-0.81,1.08-1.21,2.03-1.21c1.61,0,3.23-0.46,4.84-1.37c1.61-0.92,3.17-2.27,4.67-4.07c1.5-1.8,2.81-3.9,3.9-6.32
				c1.1-2.42,1.9-5.1,2.42-8.03l-18.25-44.54c-0.22-0.44-0.33-0.84-0.33-1.21c0-0.81,0.33-1.54,0.99-2.2
				c0.66-0.66,1.45-1.19,2.37-1.6c0.92-0.4,1.77-0.6,2.58-0.6c0.59,0,1.17,0.15,1.76,0.44c0.59,0.29,0.95,0.77,1.1,1.43l14.63,38.27
				l13.08-38.27c0.22-0.66,0.6-1.14,1.15-1.43c0.55-0.29,1.12-0.44,1.71-0.44c0.73,0,1.56,0.2,2.47,0.6
				c0.92,0.41,1.71,0.94,2.36,1.6c0.66,0.66,0.99,1.43,0.99,2.31c0,0.44-0.07,0.81-0.22,1.1l-16.82,44.76
				c-1.1,3-2.28,6.12-3.52,9.35c-1.25,3.23-2.73,6.21-4.45,8.96c-1.72,2.75-3.87,4.99-6.43,6.71
				C857.48,875.71,854.33,876.57,850.6,876.57z"/>
		</g>
		<path class="st3" d="M26.49,734.59c0,0,13.35-0.2,36.72-0.55c11.68-0.18,25.87-0.39,42.15-0.63c16.28-0.26,34.64-0.54,54.67-0.66
			c20.03-0.17,41.73-0.35,64.68-0.55c22.95-0.19,47.15-0.44,72.19-0.45c50.08-0.14,103.49-0.28,156.91-0.43
			c53.41,0.15,106.83,0.3,156.91,0.44c25.04,0.01,49.24,0.28,72.2,0.46c22.95,0.19,44.65,0.37,64.68,0.54
			c20.03,0.12,38.39,0.41,54.67,0.66c16.28,0.24,30.46,0.45,42.15,0.63c23.37,0.35,36.72,0.55,36.72,0.55v0.19H26.49V734.59z"/>
		<path class="st3" d="M881.14,904.75c0,0-13.35,0.2-36.72,0.55c-11.68,0.18-25.87,0.39-42.15,0.63
			c-16.27,0.26-34.64,0.54-54.67,0.66c-20.03,0.17-41.73,0.35-64.68,0.55c-22.95,0.19-47.16,0.44-72.2,0.45
			c-50.08,0.14-103.49,0.28-156.91,0.43c-53.41-0.15-106.83-0.3-156.91-0.44c-25.04-0.01-49.24-0.28-72.19-0.46
			c-22.95-0.19-44.65-0.37-64.68-0.54c-20.03-0.12-38.39-0.41-54.67-0.66c-16.27-0.24-30.46-0.45-42.15-0.63
			c-23.37-0.35-36.72-0.55-36.72-0.55v-0.19h854.64V904.75z"/>
		<g>
			<defs>
				<path id="SVGID_1_" d="M113.74,273.89c40.68-23.39-9.99,5.75,196.43-112.98c-2.79-13.99,7.96-26.67,21.81-26.67
					c12.31,0,22.25,10.02,22.25,22.26c0,19.02-22.45,29.25-36.78,16.81c-189.03,108.74-163.62,94.13-201.6,115.97
					c3.06,16.5,8.56,32.14,16.13,46.55c14.81-8.51-7.05,4.06,129.67-74.58c-0.25-1.34-0.4-2.72-0.4-4.14
					c0-12.27,9.98-22.25,22.25-22.25c5.57,0,10.65,2.07,14.55,5.44c49.68-28.58,71.37-41.06,121.04-69.63
					c-20.71-32.81-52.62-57.89-90.29-69.82c-33.39,19.2-6.49,3.72-137.05,78.84c2.52,13.86-8.22,26.24-21.88,26.24
					c-12.11,0-22.25-9.86-22.25-22.26c0-19.18,22.8-29.4,37.1-16.52c127.6-73.4,99.18-57.06,123.89-71.27
					c-10.17-1.85-20.22-2.74-30.13-2.74C183.8,93.13,104.94,174.61,113.74,273.89"/>
			</defs>
			<use xlink:href="#SVGID_1_"  style="overflow:visible;fill:#1A2E4C;"/>
			<clipPath id="SVGID_2_">
				<use xlink:href="#SVGID_1_"  style="overflow:visible;"/>
			</clipPath>
			<rect x="103.76" y="93.12" class="st4" width="315.35" height="246.77"/>
		</g>
		<g>
			<defs>
				<path id="SVGID_3_" d="M305.34,252.71c2.76,14.18-8.12,26.66-21.83,26.66c-5.65,0-10.8-2.15-14.73-5.63
					c-27.63,15.89-111.47,64.12-129.54,74.51c21.51,33.51,54.7,58.77,93.82,70.03c33.39-19.2,7.48-4.29,132.16-76.02
					c-4.4-21.03,20.69-35.51,36.66-21.09c3.59,3.24,6.11,7.62,7,12.56c3.77,20.37-20.41,34.38-36.27,20.88
					c-115.32,66.33-93.46,53.76-118.7,68.27c105.35,15.98,199.12-70.57,190.12-177.91c-39.32,22.63-3.36,1.94-192.04,110.47
					c4.01,20.85-20.68,34.64-36.41,20.95c-4.92-4.27-7.69-10.36-7.69-16.79c0-19.07,22.59-29.35,36.96-16.65
					c44.74-25.74,154.02-88.6,197.15-113.4c-2.94-16.44-8.33-32.02-15.74-46.4C410.26,192.35,429.71,181.15,305.34,252.71"/>
			</defs>
			<use xlink:href="#SVGID_3_"  style="overflow:visible;fill:#E8591A;"/>
			<clipPath id="SVGID_4_">
				<use xlink:href="#SVGID_3_"  style="overflow:visible;"/>
			</clipPath>
			<rect x="139.24" y="181.15" class="st5" width="313.79" height="257.71"/>
		</g>
		<g>
			<defs>
				<path id="SVGID_5_" d="M102.19,83.5c-46.76,46.72-72.47,108.83-72.47,174.9c0,66.11,25.71,128.21,72.43,174.93
					c31.51,31.5,71.06,53.84,114.4,64.67l5.45,1.37l37.44-48.95l-14.16-2.19c-39.92-6.57-76.04-25.05-104.49-53.51
					c-36.44-36.42-56.46-84.8-56.46-136.32c0-51.46,20.05-99.87,56.46-136.3c36.41-36.42,84.81-56.49,136.32-56.49
					c51.49,0,99.92,20.07,136.33,56.49c69.61,69.58,74.92,183.46,12.12,259.19l-0.47,0.56l-0.93,1.62l-231.62,302.4
					c-2.52,3.28-7.23,3.9-10.52,1.38c-3.28-2.5-3.9-7.2-1.39-10.5L340.4,466.03l-59.81-11.8
					c-21.24,27.79-143.32,189.33-143.32,189.33c-8.4,10.96-12.83,24.06-12.83,37.61c0,2.78,0.22,5.52,0.58,8.29
					c2.17,16.48,10.62,31.09,23.8,41.17c27.2,20.84,66.24,15.67,87.09-11.55l232-302.85l0.91-1.55
					c80.71-98.08,73.69-240.77-16.74-331.21C405.34,36.74,343.21,11,277.12,11C211.04,11,148.9,36.74,102.19,83.5"/>
			</defs>
			<use xlink:href="#SVGID_5_"  style="overflow:visible;fill:#1A2E4C;"/>
			<clipPath id="SVGID_6_">
				<use xlink:href="#SVGID_5_"  style="overflow:visible;"/>
			</clipPath>
			<rect x="29.71" y="11" class="st6" width="519.82" height="740.46"/>
		</g>
	</g>
	<path class="st7" d="M514.58,608.43l-60.61-89.72c-3.23-5.24-5.65-11.29-5.65-17.34c0-22.58,20.57-30.25,33.47-30.25
		c15.73,0,22.99,6.45,29.84,19.36l39.27,61.08l34.77-61.08c7.66-14.52,14.92-19.36,28.63-19.36c12.1,0,32.67,7.66,32.67,30.25
		c0,6.05-2.42,12.1-5.65,17.34l-60.61,89.72v99.81c0,19.76-12.91,33.07-33.07,33.07c-20.17,0-33.07-13.31-33.07-33.07V608.43z"/>
	<path class="st7" d="M747.7,532.02h-42.06c-18.95,0-34.28-9.68-34.28-27.83c0-18.15,15.33-27.83,34.28-27.83H855.9
		c18.95,0,34.28,9.68,34.28,27.83c0,18.15-15.33,27.83-34.28,27.83h-42.06v176.22c0,19.76-12.91,33.07-33.07,33.07
		c-20.16,0-33.07-13.31-33.07-33.07V532.02z"/>
</g>
</svg>
